<svg id="Слой_1" data-name="Слой 1" xmlns="http://www.w3.org/2000/svg" viewBox="0 0 195.32 102.46"><defs><style>.cls-2{fill:#e3c9b7}</style></defs><path d="M42.78 106.38a5.12 5.12 0 01-.68-2.78 7.32 7.32 0 01.38-2.42 3 3 0 011.06-1.45 4.2 4.2 0 011.81-.73q.45-.06.85-.09a2.9 2.9 0 00.72-.13.43.43 0 00.24-.39.17.17 0 01.19-.16c.12 0 .19.07.19.2a2.31 2.31 0 01-.32 1.08 1.21 1.21 0 01-.64.47 8.18 8.18 0 01-1.26.24 6.06 6.06 0 00-1.48.34 1.93 1.93 0 00-.95.95 4.68 4.68 0 00-.39 2.14 3.51 3.51 0 01.88-1.63 2.19 2.19 0 011.62-.52 2.73 2.73 0 011.48.4 2.64 2.64 0 011 1.07 3.13 3.13 0 01.34 1.43 3.24 3.24 0 01-.42 1.6 2.88 2.88 0 01-1 1.1 2.46 2.46 0 01-1.33.39 2.5 2.5 0 01-2.29-1.11zm3.4-.09a4.43 4.43 0 00.34-1.89Q46.51 102 45 102a1.18 1.18 0 00-1.17.69 4.49 4.49 0 00-.32 1.88q0 2.46 1.5 2.46a1.2 1.2 0 001.16-.75zm2.23 3.38a1 1 0 01-.42-.82q0-.56.31-.72a1.19 1.19 0 01.49-.16.64.64 0 01.35.09c.09.06.14.11.14.16s0 .06-.1.12a.49.49 0 00-.1.35.66.66 0 00.16.44.54.54 0 00.44.19q.79 0 1.53-1.61a1.05 1.05 0 000-.26 1 1 0 00-.06-.31q-.25-.56-.84-2.08-.51-1.36-.84-2.07a2.19 2.19 0 00-.4-.67 1 1 0 00-.55-.23h-.14c-.07 0-.11 0-.12-.06a.42.42 0 010-.17c0-.1 0-.16.08-.19a.53.53 0 01.2 0h.16a2.15 2.15 0 011.2.22 1.88 1.88 0 01.72.89q.27.64.49 1.21.5 1.35.81 2l1.22-3.27a1.27 1.27 0 00.06-.3.19.19 0 00-.12-.19 1.21 1.21 0 00-.41 0h-.07a.22.22 0 01-.14 0 .29.29 0 01-.06-.19.35.35 0 010-.17.14.14 0 01.13-.08h2.24a.15.15 0 01.14.08.32.32 0 010 .17c0 .1 0 .16-.06.19a.25.25 0 01-.15 0 1.39 1.39 0 00-.71.15 1.15 1.15 0 00-.42.59l-.92 2.28-.95 2.32a7.84 7.84 0 01-1 1.83 1.78 1.78 0 01-1.43.76 1.46 1.46 0 01-.86-.49zm11.78-2.47a1.56 1.56 0 01-.5-.51 6.24 6.24 0 01-.4-.8 8.16 8.16 0 00-.37-.74 1.45 1.45 0 00-.42-.46 1.09 1.09 0 00-.65-.19h-.39v1.5a3.14 3.14 0 000 .47.42.42 0 00.16.26.73.73 0 00.46.11h.07a.25.25 0 01.15 0 .27.27 0 01.06.19.31.31 0 010 .17.17.17 0 01-.15.07h-2.52a.16.16 0 01-.14-.07.31.31 0 010-.17c0-.11 0-.17.07-.19a.47.47 0 01.21 0 .59.59 0 00.4-.08.32.32 0 00.12-.22v-3.99a.52.52 0 00-.13-.39.6.6 0 00-.41-.09h-.11a.22.22 0 01-.14 0 .29.29 0 01-.06-.19.3.3 0 010-.17.16.16 0 01.14-.08h2.52a.17.17 0 01.15.08.31.31 0 010 .17c0 .11 0 .17-.07.19a.51.51 0 01-.22 0 .73.73 0 00-.46.11.42.42 0 00-.16.26 3.14 3.14 0 000 .47v1.2h.6q.54 0 .91-.72a3.19 3.19 0 00.14-.3l.11-.24a6.18 6.18 0 01.32-.69 1.57 1.57 0 01.41-.46 1.12 1.12 0 01.63-.22 1 1 0 01.74.28.88.88 0 01.28.64.64.64 0 01-.12.39.94.94 0 01-.27.26.55.55 0 01-.27.09h-.07v-.06a.76.76 0 00-.12-.44.39.39 0 00-.34-.18.61.61 0 00-.5.22 1.87 1.87 0 00-.28.47l-.15.34a1.63 1.63 0 01-.66.72 1.52 1.52 0 01.85.28 2 2 0 01.54.6 8.09 8.09 0 01.42.87 4.14 4.14 0 00.33.68.42.42 0 00.36.22.37.37 0 00.25-.07 1 1 0 00.18-.22q.09-.14.16-.14a.17.17 0 01.15.07.21.21 0 010 .17.71.71 0 01-.39.51 1.58 1.58 0 01-1.47 0zm3.68-.2a2.57 2.57 0 01-1-1.08 3.4 3.4 0 01-.34-1.52 3.09 3.09 0 01.34-1.41 2.84 2.84 0 011-1.1 2.57 2.57 0 011.46-.42 2.39 2.39 0 011.71.57 2.31 2.31 0 01.69 1.53.63.63 0 01-.22.56 1.17 1.17 0 01-.65.15h-3a3.13 3.13 0 00.48 1.84 2 2 0 002.4.45 2.32 2.32 0 00.71-.78.18.18 0 01.12-.06.23.23 0 01.15 0 .25.25 0 01.12.22.2.2 0 010 .11 2.79 2.79 0 01-1 1 2.62 2.62 0 01-1.34.34 3 3 0 01-1.63-.4zm2-3.22q.64 0 .67-.52a1.53 1.53 0 00-.31-1 1.06 1.06 0 00-.88-.4 1.29 1.29 0 00-1 .5 2.36 2.36 0 00-.46 1.39zm4.13 3.48a.28.28 0 01-.06-.17c0-.11 0-.17.07-.19a.52.52 0 01.22 0 .74.74 0 00.46-.11.43.43 0 00.16-.26 3.22 3.22 0 000-.47v-4h-.55a.94.94 0 00-.59.16.86.86 0 00-.29.45 6.78 6.78 0 00-.17.89.19.19 0 01-.12.15.61.61 0 01-.25 0 .31.31 0 01-.19-.06.19.19 0 01-.09-.16v-1.58q0-.29.3-.29h4.95q.3 0 .3.29v1.58a.19.19 0 01-.09.16.32.32 0 01-.19.06.61.61 0 01-.25 0 .19.19 0 01-.12-.15 5.83 5.83 0 00-.19-.88.9.9 0 00-.31-.46 1 1 0 00-.6-.16H72v4.36a.51.51 0 00.13.39.59.59 0 00.41.09h.07a.22.22 0 01.14 0 .3.3 0 01.06.19.31.31 0 010 .17.16.16 0 01-.14.07h-2.51a.17.17 0 01-.16-.07zm5 0a.31.31 0 010-.17c0-.11 0-.17.07-.19a.52.52 0 01.22 0 .74.74 0 00.46-.11.4.4 0 00.16-.26 4.2 4.2 0 000-.48v-3.4a.49.49 0 00-.16-.4.73.73 0 00-.48-.13h-.08a.24.24 0 01-.16 0 .29.29 0 01-.06-.19.3.3 0 010-.17.17.17 0 01.15-.08h2.5a.17.17 0 01.15.08.31.31 0 010 .17c0 .11 0 .17-.07.19a.47.47 0 01-.21 0 .6.6 0 00-.4.08.32.32 0 00-.12.22v1.68h2.66v-1.49a.52.52 0 00-.13-.39.6.6 0 00-.41-.09h-.07a.22.22 0 01-.14 0 .29.29 0 01-.06-.19.31.31 0 010-.17.16.16 0 01.14-.08h2.51a.17.17 0 01.15.08.3.3 0 010 .17c0 .11 0 .17-.07.19a.51.51 0 01-.22 0 .73.73 0 00-.46.11.42.42 0 00-.16.26 3.22 3.22 0 000 .47V106a3.22 3.22 0 000 .47.43.43 0 00.16.26.74.74 0 00.46.11h.08a.25.25 0 01.15 0 .27.27 0 01.06.19.31.31 0 010 .17.17.17 0 01-.15.07h-2.51a.16.16 0 01-.14-.07.31.31 0 010-.17c0-.11 0-.17.07-.19a.47.47 0 01.21 0 .6.6 0 00.4-.08.32.32 0 00.12-.22v-2.01h-2.57v1.83a.51.51 0 00.13.39.59.59 0 00.41.09h.06a.25.25 0 01.15 0 .27.27 0 01.06.19.31.31 0 010 .17.17.17 0 01-.15.07h-2.5a.17.17 0 01-.21-.01zm8.11-.26a1.52 1.52 0 01.06-2.24 2.79 2.79 0 011.25-.51 18 18 0 011.87-.18v-1a1.29 1.29 0 00-.31-.93 1.31 1.31 0 00-1-.32 1 1 0 00-.67.24.78.78 0 00-.29.64.56.56 0 00.09.33 1.15 1.15 0 00.2.22l.11.1s-.05.11-.16.19a.61.61 0 01-.38.12.72.72 0 01-.59-.27 1 1 0 01-.22-.65 1 1 0 01.58-1 2.93 2.93 0 011.4-.31 3.2 3.2 0 011.66.39 1.53 1.53 0 01.64 1.43v2.9a1 1 0 00.16.5.53.53 0 00.49.35.16.16 0 01.19.2q0 .15-.23.22a1.59 1.59 0 01-.45.07 1.34 1.34 0 01-.84-.27 1 1 0 01-.41-.74 1.74 1.74 0 01-.8.75 2.65 2.65 0 01-1.17.26 1.72 1.72 0 01-1.18-.49zm2.39-.46a1.56 1.56 0 00.57-.58 1.6 1.6 0 00.21-.82v-.71a4.47 4.47 0 00-1.84.42 1.13 1.13 0 00-.54 1q0 .85.81.85a1.53 1.53 0 00.79-.14zm3.6.73a1.12 1.12 0 01-.39-.29.53.53 0 01-.14-.32.18.18 0 01.2-.2q.09 0 .2.16a1 1 0 00.17.2.33.33 0 00.22.07.55.55 0 00.43-.21 5.19 5.19 0 00.46-.67l.14-.22.11-.18a2.47 2.47 0 01.5-.61 2 2 0 01.71-.33 2.62 2.62 0 01-.75-.14 2 2 0 01-.65-.35 1.32 1.32 0 01.16-2.12 3.19 3.19 0 011.66-.37h3.06a.16.16 0 01.14.08.31.31 0 010 .17c0 .11 0 .17-.07.19a.51.51 0 01-.22 0 .73.73 0 00-.46.11.4.4 0 00-.16.26 4.35 4.35 0 000 .47V106a4.36 4.36 0 000 .47.4.4 0 00.16.26.74.74 0 00.46.11h.07a.25.25 0 01.16 0 .3.3 0 01.06.19.31.31 0 010 .17.16.16 0 01-.14.07h-2.51a.17.17 0 01-.15-.07.31.31 0 010-.17c0-.11 0-.17.07-.19a.47.47 0 01.21 0q.37 0 .46-.13a.74.74 0 00.09-.39v-1.6h-.29a1.2 1.2 0 00-.87.31 4.13 4.13 0 00-.67.92 6.56 6.56 0 01-.49.76 1.84 1.84 0 01-.55.47 1.66 1.66 0 01-.83.19 1.29 1.29 0 01-.56-.1zm4.25-2.87v-1.91a.32.32 0 00-.21-.34 2.13 2.13 0 00-.67-.07 1.5 1.5 0 00-1 .3 1.07 1.07 0 00-.36.87 1 1 0 00.5.91 2.37 2.37 0 001.17.24zm7.65 2.86a.28.28 0 01-.06-.17c0-.11 0-.17.07-.19a.56.56 0 01.22 0 .74.74 0 00.46-.11.43.43 0 00.16-.27 3.22 3.22 0 000-.47v-3.08a1.48 1.48 0 00-.06-.5.39.39 0 00-.19-.22 2.09 2.09 0 00-.42-.12h-.14a.16.16 0 01-.04-.13.38.38 0 010-.16.19.19 0 01.07-.18.46.46 0 01.22 0 6.05 6.05 0 011.1.08 1.8 1.8 0 01.77.34 2.35 2.35 0 01.62.77l1.48 2.81 1.63-4h2.01a.16.16 0 01.14.08.3.3 0 010 .17c0 .11 0 .17-.07.19a.51.51 0 01-.22 0 .73.73 0 00-.46.11.4.4 0 00-.16.26 4.23 4.23 0 000 .47V106a4.23 4.23 0 000 .47.4.4 0 00.16.26.74.74 0 00.46.11h.08a.25.25 0 01.16 0 .3.3 0 01.06.19.31.31 0 010 .17.16.16 0 01-.14.07h-2.51a.17.17 0 01-.14-.07.28.28 0 01-.06-.17c0-.11 0-.17.07-.19a.47.47 0 01.21 0 .62.62 0 00.4-.08.31.31 0 00.13-.22v-3.85l-1.88 4.59h-.32l-2.34-4.59V106a4.2 4.2 0 000 .47.4.4 0 00.16.26.74.74 0 00.46.11h.07a.28.28 0 01.16 0 .27.27 0 01.06.19.28.28 0 01-.06.17.17.17 0 01-.14.07h-2.01a.17.17 0 01-.17-.01zm9.3-.26a1.52 1.52 0 01.06-2.24 2.79 2.79 0 011.25-.51 18 18 0 011.87-.18v-1a1.29 1.29 0 00-.31-.93 1.31 1.31 0 00-1-.32 1 1 0 00-.67.24.78.78 0 00-.29.64.55.55 0 00.09.33 1.13 1.13 0 00.2.22l.11.1s-.05.11-.16.19a.61.61 0 01-.38.12.72.72 0 01-.59-.27 1 1 0 01-.22-.65 1 1 0 01.58-1 2.93 2.93 0 011.4-.31 3.2 3.2 0 011.66.39 1.53 1.53 0 01.64 1.43v2.9a1 1 0 00.16.5.53.53 0 00.49.24.22.22 0 01.14 0 .22.22 0 010 .16c0 .1-.08.17-.23.22a1.6 1.6 0 01-.46.07 1.34 1.34 0 01-.83-.27 1 1 0 01-.41-.74 1.74 1.74 0 01-.8.75 2.65 2.65 0 01-1.17.26 1.72 1.72 0 01-1.13-.34zm2.39-.46a1.57 1.57 0 00.57-.58 1.6 1.6 0 00.21-.82v-.71a4.47 4.47 0 00-1.84.42 1.13 1.13 0 00-.54 1q0 .85.81.85a1.53 1.53 0 00.79-.14zm4.15.1a3.32 3.32 0 01-.31-3.68 2.87 2.87 0 011.05-1 3.08 3.08 0 011.46-.41 3 3 0 011.38.3 1 1 0 01.58 1 1.07 1.07 0 01-.23.68.74.74 0 01-.62.29.66.66 0 01-.41-.12q-.17-.12-.17-.21l.11-.11a1.21 1.21 0 00.21-.24.59.59 0 00.09-.33.67.67 0 00-.28-.59 1.14 1.14 0 00-.68-.2 1.31 1.31 0 00-1.3.7 4 4 0 00-.34 1.76 2.92 2.92 0 00.47 1.72 1.47 1.47 0 001.26.67 1.73 1.73 0 00.92-.23 2.25 2.25 0 00.69-.7.13.13 0 01.12-.06.31.31 0 01.14 0 .21.21 0 01.1.09.24.24 0 010 .12.21.21 0 010 .1 3.07 3.07 0 01-1 .93 2.5 2.5 0 01-1.23.34 2.54 2.54 0 01-2.01-.82zm6.37.62a.28.28 0 01-.06-.17c0-.11 0-.17.07-.19a.52.52 0 01.22 0 .74.74 0 00.46-.11.43.43 0 00.16-.26 3.22 3.22 0 000-.47v-4h-.55a.94.94 0 00-.59.16.86.86 0 00-.29.45 6.78 6.78 0 00-.17.89.19.19 0 01-.12.15.61.61 0 01-.25 0 .31.31 0 01-.19-.06.19.19 0 01-.09-.16v-1.58q0-.29.3-.29h4.95q.3 0 .3.29v1.58a.19.19 0 01-.09.16.32.32 0 01-.19.06.61.61 0 01-.25 0 .19.19 0 01-.12-.15 5.83 5.83 0 00-.19-.88.9.9 0 00-.31-.46 1 1 0 00-.6-.16h-.5v4.36a.51.51 0 00.13.39.59.59 0 00.41.09h.07a.22.22 0 01.14 0 .3.3 0 01.06.19.31.31 0 010 .17.16.16 0 01-.14.07h-2.51a.17.17 0 01-.06-.07zm6.41-.26a2.57 2.57 0 01-1-1.08 3.4 3.4 0 01-.34-1.52 3.09 3.09 0 01.34-1.41 2.84 2.84 0 011-1.1 2.57 2.57 0 011.46-.42 2.39 2.39 0 011.71.57 2.31 2.31 0 01.69 1.53.63.63 0 01-.22.56 1.17 1.17 0 01-.65.15h-3a3.13 3.13 0 00.48 1.84 2 2 0 002.4.45 2.32 2.32 0 00.71-.78.18.18 0 01.12-.06.23.23 0 01.15 0 .25.25 0 01.12.22.2.2 0 010 .11 2.79 2.79 0 01-1 1 2.62 2.62 0 01-1.34.34 3 3 0 01-1.63-.4zm2-3.22q.64 0 .67-.52a1.53 1.53 0 00-.31-1 1.06 1.06 0 00-.88-.4 1.29 1.29 0 00-1 .5 2.36 2.36 0 00-.46 1.39zm2.76 6.04a.28.28 0 01-.06-.17c0-.11 0-.17.07-.19a.51.51 0 01.22 0 .71.71 0 00.45-.11.46.46 0 00.17-.27 2.59 2.59 0 000-.46v-5.41a4.36 4.36 0 000-.47.4.4 0 00-.16-.26.74.74 0 00-.46-.11.46.46 0 01-.22 0s-.07-.1-.07-.21a.24.24 0 010-.14.21.21 0 01.15-.08 6.66 6.66 0 001.33-.32l.29-.07c.13 0 .2.08.2.24v.6a3.08 3.08 0 01.85-.55 2.25 2.25 0 01.92-.22 2.46 2.46 0 011.34.37 2.55 2.55 0 01.93 1.05 3.42 3.42 0 01.34 1.54 3 3 0 01-.4 1.55 2.83 2.83 0 01-1.06 1.05 2.8 2.8 0 01-1.4.37 3 3 0 01-.86-.11 2.74 2.74 0 01-.64-.28v1.51a2.58 2.58 0 000 .46.46.46 0 00.17.27.71.71 0 00.45.11h.07a.25.25 0 01.15 0 .27.27 0 01.06.19.31.31 0 010 .17.17.17 0 01-.15.07h-2.61a.17.17 0 01-.07-.12zm4.74-3.57a3.71 3.71 0 00.41-1.75 3 3 0 00-.45-1.68 1.48 1.48 0 00-1.33-.7 1.52 1.52 0 00-.74.17 2.57 2.57 0 00-.6.48v3.34a1.44 1.44 0 00.53.64 1.55 1.55 0 00.92.27 1.35 1.35 0 001.26-.77zm3.43.39a3.32 3.32 0 01-.31-3.68 2.86 2.86 0 011.05-1 3.07 3.07 0 011.46-.41 3 3 0 011.38.3 1 1 0 01.58 1 1.07 1.07 0 01-.23.68.75.75 0 01-.62.29.66.66 0 01-.4-.12q-.17-.12-.17-.21l.11-.11a1.21 1.21 0 00.21-.24.59.59 0 00.09-.33.67.67 0 00-.28-.59 1.14 1.14 0 00-.68-.2 1.31 1.31 0 00-1.3.7 4 4 0 00-.34 1.76 2.92 2.92 0 00.47 1.72 1.47 1.47 0 001.26.67 1.73 1.73 0 00.92-.23 2.24 2.24 0 00.69-.7.13.13 0 01.12-.06.31.31 0 01.14 0 .21.21 0 01.1.09.24.24 0 010 .12.22.22 0 010 .1 3.08 3.08 0 01-1 .93 2.5 2.5 0 01-1.23.34 2.54 2.54 0 01-2.02-.82zm9.82.56a1.56 1.56 0 01-.5-.51 6.24 6.24 0 01-.4-.8 8.18 8.18 0 00-.37-.74 1.46 1.46 0 00-.42-.46 1.09 1.09 0 00-.65-.19h-.39v1.5a3.16 3.16 0 000 .47.42.42 0 00.16.26.74.74 0 00.46.11h.07a.25.25 0 01.15 0 .27.27 0 01.06.19.31.31 0 010 .17.17.17 0 01-.15.07h-2.52a.16.16 0 01-.14-.07.31.31 0 010-.17c0-.11 0-.17.07-.19a.47.47 0 01.21 0 .59.59 0 00.4-.08.32.32 0 00.12-.22v-3.99a.52.52 0 00-.13-.39.6.6 0 00-.41-.09h-.07a.22.22 0 01-.14 0 .29.29 0 01-.06-.19.31.31 0 010-.17.16.16 0 01.14-.08h2.52a.17.17 0 01.15.08.31.31 0 010 .17c0 .11 0 .17-.07.19a.51.51 0 01-.22 0 .73.73 0 00-.46.11.42.42 0 00-.16.26 3.15 3.15 0 000 .47v1.2h.57q.54 0 .91-.72a3.19 3.19 0 00.14-.3l.11-.24a6.1 6.1 0 01.32-.69 1.58 1.58 0 01.41-.46 1.12 1.12 0 01.63-.22 1 1 0 01.74.28.88.88 0 01.28.64.64.64 0 01-.12.39.94.94 0 01-.27.26.55.55 0 01-.27.09H153v-.06a.76.76 0 00-.12-.44.39.39 0 00-.34-.18.61.61 0 00-.5.22 1.87 1.87 0 00-.28.47l-.15.34a1.62 1.62 0 01-.66.72 1.52 1.52 0 01.85.28 2 2 0 01.54.6 8.09 8.09 0 01.42.87 4.14 4.14 0 00.33.68.42.42 0 00.36.22.37.37 0 00.25-.07 1 1 0 00.18-.22q.09-.14.16-.14a.17.17 0 01.15.07.21.21 0 010 .17.71.71 0 01-.39.51 1.58 1.58 0 01-1.47 0zm2.86-.2a1.52 1.52 0 01.06-2.24 2.79 2.79 0 011.25-.51 18 18 0 011.87-.18v-1a1.29 1.29 0 00-.31-.93 1.31 1.31 0 00-1-.32 1 1 0 00-.67.24.78.78 0 00-.29.64.56.56 0 00.09.33 1.16 1.16 0 00.2.22l.11.1s-.05.11-.16.19a.61.61 0 01-.38.12.72.72 0 01-.59-.27 1 1 0 01-.22-.65 1 1 0 01.58-1 2.93 2.93 0 011.4-.31 3.2 3.2 0 011.66.39 1.53 1.53 0 01.64 1.43v2.9a1 1 0 00.16.5.53.53 0 00.49.24.22.22 0 01.14 0 .22.22 0 010 .16q0 .15-.23.22a1.59 1.59 0 01-.45.07 1.34 1.34 0 01-.84-.27 1 1 0 01-.41-.74 1.74 1.74 0 01-.8.75 2.65 2.65 0 01-1.17.26 1.72 1.72 0 01-1.13-.34zm2.39-.46a1.57 1.57 0 00.57-.58 1.6 1.6 0 00.21-.82v-.71a4.47 4.47 0 00-1.84.42 1.13 1.13 0 00-.54 1q0 .85.81.85a1.53 1.53 0 00.79-.14zm3.59.73a1.12 1.12 0 01-.39-.29.53.53 0 01-.14-.32.18.18 0 01.2-.2c.06 0 .12.05.2.16a1 1 0 00.17.2.33.33 0 00.22.07.55.55 0 00.43-.21 5.2 5.2 0 00.45-.67l.14-.22.11-.18a2.46 2.46 0 01.55-.62 2 2 0 01.71-.33 2.62 2.62 0 01-.75-.14 2 2 0 01-.65-.35 1.32 1.32 0 01.16-2.12 3.2 3.2 0 011.66-.37h3.02a.16.16 0 01.14.08.31.31 0 010 .17c0 .11 0 .17-.07.19a.51.51 0 01-.22 0 .73.73 0 00-.46.11.39.39 0 00-.16.26 4.2 4.2 0 000 .47V106a4.2 4.2 0 000 .47.4.4 0 00.16.26.73.73 0 00.46.11h.07a.25.25 0 01.16 0 .3.3 0 01.06.19.31.31 0 010 .17.16.16 0 01-.14.07h-2.51a.17.17 0 01-.15-.07.31.31 0 010-.17c0-.11 0-.17.07-.19a.47.47 0 01.21 0q.37 0 .46-.13a.74.74 0 00.09-.39v-1.6h-.29a1.2 1.2 0 00-.87.31 4.14 4.14 0 00-.67.92 6.5 6.5 0 01-.49.76 1.85 1.85 0 01-.55.47 1.66 1.66 0 01-.84.19 1.3 1.3 0 01-.55-.1zm4.25-2.87v-1.91a.32.32 0 00-.21-.34 2.12 2.12 0 00-.67-.07 1.5 1.5 0 00-1 .3 1.07 1.07 0 00-.36.87 1 1 0 00.5.91 2.37 2.37 0 001.17.24zM16.83 92.26l-6-13.49h-.08l.05 10.52a7.07 7.07 0 00.11 1.1 1.12 1.12 0 00.44.66 1.84 1.84 0 001.13.28h.16a.63.63 0 01.38.09.67.67 0 01.15.46.7.7 0 01-.12.41.41.41 0 01-.36.17h-.66q-1.22-.05-1.75-.05-.9 0-2.62.08a.41.41 0 01-.36-.17.7.7 0 01-.12-.41q0-.4.16-.48a1.09 1.09 0 01.5-.08 1.84 1.84 0 001.16-.3 1.12 1.12 0 00.44-.66 7.07 7.07 0 00.11-1.1l.05-10.52a3.14 3.14 0 00-.19-1.23 1.14 1.14 0 00-.54-.58 4.47 4.47 0 00-1-.3l-.32-.07a.37.37 0 01-.28-.16.83.83 0 01-.12-.43.46.46 0 01.17-.42 1.07 1.07 0 01.54-.11 13.66 13.66 0 012.57.2 4 4 0 011.76.81 4.52 4.52 0 011.26 1.8L18 88.55h.08l5.22-12.88h1.51q1.46 0 3.15-.08a.41.41 0 01.36.17.7.7 0 01.12.41q0 .4-.17.48a1.1 1.1 0 01-.49.08 1.9 1.9 0 00-1.14.28 1.17 1.17 0 00-.46.69 6.12 6.12 0 00-.12 1.07v10.52a6.11 6.11 0 00.12 1.07 1.17 1.17 0 00.46.69 1.9 1.9 0 001.14.28H28a.58.58 0 01.36.09.67.67 0 01.15.46.7.7 0 01-.12.41.41.41 0 01-.36.17q-1.7-.08-3.18-.08t-3.26.08a.41.41 0 01-.36-.17.7.7 0 01-.12-.41q0-.4.16-.48a1.09 1.09 0 01.5-.08 1.9 1.9 0 001.14-.28 1.17 1.17 0 00.46-.69 6.2 6.2 0 00.12-1.07V78.77h-.08l-5.49 13.49c-.07.18-.25.27-.53.27a.6.6 0 01-.56-.27zm16.49-.45a3.23 3.23 0 01.13-4.81 6 6 0 012.65-1 38.62 38.62 0 014-.38v-2.14a2.74 2.74 0 00-.65-2 2.78 2.78 0 00-2.08-.68 2.18 2.18 0 00-1.43.5 1.66 1.66 0 00-.61 1.35 1.18 1.18 0 00.2.7 2.41 2.41 0 00.42.46c.15.12.23.19.23.21s-.11.24-.33.41a1.3 1.3 0 01-.81.25 1.52 1.52 0 01-1.26-.58 2.15 2.15 0 01-.46-1.38 2.17 2.17 0 011.23-2 6.22 6.22 0 013-.66 6.79 6.79 0 013.54.82 3.26 3.26 0 011.37 3v6.18a2.15 2.15 0 00.34 1.06 1.13 1.13 0 001 .5.47.47 0 01.3.08.46.46 0 01.09.34q0 .32-.49.46a3.39 3.39 0 01-1 .15 2.86 2.86 0 01-1.7-.52 2.17 2.17 0 01-.87-1.56 3.7 3.7 0 01-1.71 1.59 5.62 5.62 0 01-2.48.56 3.65 3.65 0 01-2.62-.91zm5.09-1a3.33 3.33 0 001.22-1.23 3.41 3.41 0 00.45-1.74v-1.49a9.51 9.51 0 00-3.92.9A2.4 2.4 0 0035 89.47q0 1.8 1.72 1.8a3.25 3.25 0 001.69-.44zm9.82 1.5a.6.6 0 01-.12-.37c0-.23.07-.37.16-.41a1.19 1.19 0 01.48-.07 1.56 1.56 0 001-.24.85.85 0 00.33-.56 9 9 0 000-1v-6.07a9.05 9.05 0 000-1 .85.85 0 00-.33-.56 1.57 1.57 0 00-1-.24 1 1 0 01-.48-.09q-.16-.09-.16-.44a.51.51 0 01.11-.3.44.44 0 01.32-.17 14.13 14.13 0 002.84-.69c.3-.09.5-.14.61-.16h.08q.42 0 .42.5v1.64h.08a9 9 0 011.88-1.47 3.56 3.56 0 011.72-.54 1.69 1.69 0 011.39.65 2.34 2.34 0 01.52 1.5 2.11 2.11 0 01-.45 1.33 1.49 1.49 0 01-1.25.58 1.29 1.29 0 01-.65-.16c-.19-.11-.29-.19-.3-.27a3.08 3.08 0 01.27-.33 1 1 0 00.24-.65 1.14 1.14 0 00-.25-.77.85.85 0 00-.68-.29 2.29 2.29 0 00-1.14.44 8 8 0 00-1.35 1.1v6.47a6.74 6.74 0 00.05 1 .9.9 0 00.34.56 1.56 1.56 0 001 .24h.16a.53.53 0 01.32.08.57.57 0 01.13.4.65.65 0 01-.11.37.36.36 0 01-.32.16q-1.54-.08-2.78-.08t-2.76.08a.37.37 0 01-.32-.17zm13.92 0a.6.6 0 01-.12-.37c0-.23.07-.37.16-.41a1.19 1.19 0 01.48-.07 1.56 1.56 0 001-.24.85.85 0 00.33-.56 9 9 0 000-1v-6.07a9.05 9.05 0 000-1 .85.85 0 00-.33-.56 1.57 1.57 0 00-1-.24 1 1 0 01-.48-.09q-.19-.1-.19-.44a.51.51 0 01.11-.3.44.44 0 01.32-.17 13.56 13.56 0 002.86-.69 2.85 2.85 0 01.61-.16h.1q.42 0 .42.5v9.23a6.74 6.74 0 00.05 1 .9.9 0 00.34.56 1.56 1.56 0 001 .24H68a.53.53 0 01.32.08.57.57 0 01.13.4.65.65 0 01-.11.37.36.36 0 01-.32.16q-1.54-.08-2.78-.08t-2.76.08a.37.37 0 01-.33-.17zm1.68-15.79a1.5 1.5 0 01-.5-1.15 1.37 1.37 0 01.61-1.09 2.18 2.18 0 011.38-.48 1.41 1.41 0 011.09.46 1.68 1.68 0 01.42 1.18 1.41 1.41 0 01-.5 1.09 1.8 1.8 0 01-1.25.45 1.77 1.77 0 01-1.25-.45zm9.7 15.29a3.23 3.23 0 01.14-4.81 6 6 0 012.65-1 38.62 38.62 0 014-.38v-2.14a2.74 2.74 0 00-.65-2 2.78 2.78 0 00-2.08-.68 2.18 2.18 0 00-1.43.5 1.66 1.66 0 00-.61 1.35 1.18 1.18 0 00.2.7 2.41 2.41 0 00.42.46c.15.12.23.19.23.21s-.11.24-.33.41a1.3 1.3 0 01-.81.25 1.52 1.52 0 01-1.26-.53 2.15 2.15 0 01-.46-1.38 2.17 2.17 0 011.23-2 6.22 6.22 0 013-.66 6.79 6.79 0 013.54.82 3.26 3.26 0 011.37 3v6.18a2.15 2.15 0 00.32 1.06 1.13 1.13 0 001 .5.47.47 0 01.3.08.46.46 0 01.09.34q0 .32-.49.46a3.39 3.39 0 01-1 .15 2.86 2.86 0 01-1.78-.58 2.17 2.17 0 01-.87-1.56 3.7 3.7 0 01-1.71 1.59 5.62 5.62 0 01-2.48.56 3.65 3.65 0 01-2.53-.9zm5.09-1a3.33 3.33 0 001.22-1.23 3.41 3.41 0 00.45-1.74v-1.49a9.51 9.51 0 00-3.92.9 2.4 2.4 0 00-1.14 2.23q0 1.8 1.72 1.8a3.25 3.25 0 001.67-.45zM97.4 92.3a.71.71 0 01-.12-.41q0-.4.16-.48a1.09 1.09 0 01.5-.08 1.9 1.9 0 001.14-.28 1.17 1.17 0 00.46-.69 6.18 6.18 0 00.12-1.07V78.77a6.19 6.19 0 00-.12-1.07 1.17 1.17 0 00-.46-.69 1.9 1.9 0 00-1.14-.28h-.16a.57.57 0 01-.37-.09.73.73 0 01-.13-.46.71.71 0 01.12-.41.38.38 0 01.33-.17q1.72.08 3.15.08h7.66q.69 0 .69.64l.08 3.71a.44.44 0 01-.24.38.91.91 0 01-.48.15 1.31 1.31 0 01-.57-.12.44.44 0 01-.28-.36 10.09 10.09 0 00-.44-2 2 2 0 00-.74-1 2.62 2.62 0 00-1.39-.36h-2.87v6.89h4.7a.42.42 0 01.32.2.77.77 0 01.11.41.66.66 0 01-.11.37.36.36 0 01-.32.16h-4.7v4.53a6.11 6.11 0 00.12 1.07 1.17 1.17 0 00.46.69 1.9 1.9 0 001.14.28h.16a.58.58 0 01.36.09.67.67 0 01.15.46.71.71 0 01-.12.41.41.41 0 01-.36.17q-1.7-.08-3.29-.08t-3.18.08a.38.38 0 01-.34-.15zm15.7.01a.6.6 0 01-.12-.37c0-.23.07-.37.15-.41a1.09 1.09 0 01.46-.07 1.56 1.56 0 001-.24.91.91 0 00.34-.56 6.82 6.82 0 00.05-1V76.72a9 9 0 000-1 .85.85 0 00-.33-.56 1.57 1.57 0 00-1-.24 1 1 0 01-.48-.09q-.16-.09-.16-.44a.51.51 0 01.11-.3.44.44 0 01.32-.17 13.59 13.59 0 002.86-.69 2.85 2.85 0 01.61-.16h.09q.42 0 .42.5v16.09a6.79 6.79 0 00.05 1 .9.9 0 00.34.56 1.56 1.56 0 001 .24h.16a.53.53 0 01.32.08.57.57 0 01.13.4.65.65 0 01-.11.37.36.36 0 01-.32.16q-1.54-.08-2.78-.08t-2.76.08a.36.36 0 01-.35-.16zm13.37-.46a6.07 6.07 0 01-2.19-2.28 6.14 6.14 0 01-.78-3 6.34 6.34 0 013.29-5.71 6.06 6.06 0 016.1.08 6.21 6.21 0 013 5.29 6.28 6.28 0 01-.94 3.46 6.49 6.49 0 01-2.37 2.25 5.93 5.93 0 01-2.86.78 6 6 0 01-3.25-.87zm5.85-1.66a8.3 8.3 0 00.83-4 7.2 7.2 0 00-.86-3.72 2.84 2.84 0 00-2.61-1.47 2.79 2.79 0 00-2.68 1.56 8.24 8.24 0 00-.82 3.95 7.43 7.43 0 00.85 3.75 2.82 2.82 0 002.62 1.47 2.79 2.79 0 002.67-1.54zm9.45-6.94a4.64 4.64 0 00-.85-1.42 2 2 0 00-1.17-.49l-.29-.05q-.21 0-.27-.13a.91.91 0 01-.05-.37c0-.21.06-.34.17-.4a1.17 1.17 0 01.42-.09h.33a4.59 4.59 0 012.54.46 4 4 0 011.54 1.9l2.44 6.87h.08q.82-2.54 2.57-9.12h1.27l3.63 9.12h.08q.45-1.38.87-3.14t.5-2l.48-1.88a2.26 2.26 0 00.08-.53.49.49 0 00-.24-.49 2.1 2.1 0 00-.85-.12h-.16a.47.47 0 01-.3-.08.62.62 0 01-.12-.4.75.75 0 01.09-.36.3.3 0 01.28-.17q1.51.08 2.6.08.66 0 2.23-.08a.33.33 0 01.29.17.68.68 0 01.11.36.57.57 0 01-.13.4.53.53 0 01-.32.08 3.19 3.19 0 00-1.63.33 2 2 0 00-.78 1.23l-2.94 9.78h-1.56L149.35 84l-2.62 8.67h-1.56zm24.08 8.61a5.48 5.48 0 01-2.11-2.31 7.24 7.24 0 01-.72-3.23 6.59 6.59 0 01.73-3 6.05 6.05 0 012.09-2.32 5.46 5.46 0 013.1-.9 5.08 5.08 0 013.63 1.21 4.91 4.91 0 011.43 3.21 1.33 1.33 0 01-.48 1.19 2.49 2.49 0 01-1.38.32h-6.44a6.66 6.66 0 001 3.91 4.15 4.15 0 005.1 1 4.9 4.9 0 001.51-1.66.38.38 0 01.27-.13.5.5 0 01.32.11.52.52 0 01.27.48.44.44 0 01-.05.24 5.93 5.93 0 01-2.04 2.02 5.59 5.59 0 01-2.85.73 6.38 6.38 0 01-3.38-.87zm4.2-6.84q1.35 0 1.43-1.11a3.26 3.26 0 00-.66-2.07 2.25 2.25 0 00-1.88-.85 2.75 2.75 0 00-2.23 1.07 5 5 0 00-1 3zm8.84 7.29a.6.6 0 01-.12-.37c0-.23.07-.37.16-.41a1.19 1.19 0 01.48-.07 1.56 1.56 0 001-.24.85.85 0 00.33-.56 9 9 0 000-1v-6.07a9.05 9.05 0 000-1 .85.85 0 00-.33-.56 1.57 1.57 0 00-1-.24 1 1 0 01-.48-.09q-.16-.09-.16-.44a.51.51 0 01.11-.3.44.44 0 01.32-.17 14.13 14.13 0 002.84-.69c.3-.09.5-.14.61-.16h.08q.42 0 .42.5v1.64h.08a9 9 0 011.88-1.47 3.56 3.56 0 011.72-.54 1.69 1.69 0 011.39.65 2.34 2.34 0 01.52 1.5 2.11 2.11 0 01-.45 1.33 1.49 1.49 0 01-1.25.58 1.29 1.29 0 01-.65-.16c-.19-.11-.29-.19-.3-.27a3.08 3.08 0 01.27-.33 1 1 0 00.24-.65 1.14 1.14 0 00-.25-.77.85.85 0 00-.68-.29 2.29 2.29 0 00-1.14.44 8 8 0 00-1.35 1.1v6.47a6.74 6.74 0 00.05 1 .9.9 0 00.34.56 1.56 1.56 0 001 .24h.16a.53.53 0 01.32.08.57.57 0 01.13.4.65.65 0 01-.11.37.36.36 0 01-.32.16q-1.54-.08-2.78-.08t-2.76.08a.37.37 0 01-.32-.17zm15.26-.31a2.3 2.3 0 01-1.33-2.09 1.71 1.71 0 01.46-1.25 1.61 1.61 0 011.21-.48 1.26 1.26 0 01.76.24q.33.24.33.37a2.4 2.4 0 01-.3.34 1.25 1.25 0 00-.3.9 1.43 1.43 0 00.73 1.26 3.94 3.94 0 002.11.46 3.11 3.11 0 001.95-.54 1.82 1.82 0 00.7-1.52 1.53 1.53 0 00-.4-1.09 2.73 2.73 0 00-1-.66q-.6-.24-1.66-.56a15.78 15.78 0 01-2.12-.74 3.71 3.71 0 01-1.4-1.11 3 3 0 01-.58-1.93 2.81 2.81 0 01.69-1.91 4.2 4.2 0 011.79-1.19 6.77 6.77 0 012.32-.4 5.36 5.36 0 012.72.66 2.05 2.05 0 011.17 1.82 1.8 1.8 0 01-.44 1.22 1.45 1.45 0 01-1.15.5 1.26 1.26 0 01-.76-.24q-.33-.24-.33-.37s.07-.09.21-.21a2.33 2.33 0 00.38-.44 1 1 0 00.17-.6 1.37 1.37 0 00-.72-1.11 3 3 0 00-1.56-.4 3.3 3.3 0 00-1.76.46 1.44 1.44 0 00-.76 1.29 2 2 0 00.32 1.18 2.18 2.18 0 001 .7q.64.27 2 .72a17.75 17.75 0 012.2.84 3.25 3.25 0 011.26 1 2.88 2.88 0 01.46 1.71 3.31 3.31 0 01-.64 2 4.15 4.15 0 01-1.75 1.38 6.12 6.12 0 01-2.49.49 7 7 0 01-3.49-.7z" transform="translate(-7.15 -7.55)" fill="#231f20"/><circle class="cls-2" cx="100.94" cy="1.44" r=".87"/><circle class="cls-2" cx="100.8" cy="9.09" r=".87" transform="rotate(-15 68.517 32.473)"/><circle class="cls-2" cx="93.77" cy="11.08" r=".87" transform="rotate(-30 76.087 20.648)"/><circle class="cls-2" cx="87.49" cy="14.81" r=".87" transform="rotate(-45 74.797 19.668)"/><circle class="cls-2" cx="82.39" cy="20.05" r=".87" transform="rotate(-60 72.27 22.465)"/><circle class="cls-2" cx="78.83" cy="26.42" r=".87" transform="rotate(-75 70.328 27.306)"/><circle class="cls-2" cx="69.87" cy="25.94" r=".87"/><circle class="cls-2" cx="77.13" cy="40.8" r=".87" transform="rotate(-15 44.866 64.21)"/><circle class="cls-2" cx="79.11" cy="47.83" r=".87" transform="rotate(-30 61.439 57.403)"/><circle class="cls-2" cx="82.85" cy="54.11" r=".87" transform="rotate(-45 70.144 58.965)"/><circle class="cls-2" cx="88.08" cy="59.2" r=".87" transform="rotate(-60 77.961 61.627)"/><circle class="cls-2" cx="94.45" cy="62.77" r=".87" transform="rotate(-75 85.95 63.653)"/><circle class="cls-2" cx="94.38" cy="57.01" r=".87"/><circle class="cls-2" cx="108.83" cy="64.47" r=".87" transform="rotate(-15 76.565 87.856)"/><circle class="cls-2" cx="115.86" cy="62.49" r=".87" transform="rotate(-30 98.189 72.07)"/><circle class="cls-2" cx="122.14" cy="58.75" r=".87" transform="rotate(-45 109.446 63.606)"/><circle class="cls-2" cx="127.24" cy="53.52" r=".87" transform="rotate(-60 117.119 55.944)"/><circle class="cls-2" cx="130.8" cy="47.15" r=".87" transform="rotate(-75 122.309 48.03)"/><path class="cls-2" d="M132.45 35.19a1.57 1.57 0 00-.85.24 3.35 3.35 0 00-2.21-1.43c-.07-.13-.15-.26-.23-.38s.09-.28.12-.42a3.35 3.35 0 001.75-2 1.57 1.57 0 00.88 0 1.59 1.59 0 10-.82-3.08 1.57 1.57 0 00-.75.46 3.36 3.36 0 00-2.52-.86l-.32-.31v-.44a3.35 3.35 0 001.18-2.39 1.57 1.57 0 00.85-.21 1.59 1.59 0 10-1.53-2.78 1.57 1.57 0 00-.61.64 3.35 3.35 0 00-2.66-.18l-.39-.21c0-.14-.06-.29-.1-.43a3.35 3.35 0 00.52-2.61 1.57 1.57 0 00.77-.42 1.59 1.59 0 00-2.25-2.25 1.57 1.57 0 00-.42.77 3.35 3.35 0 00-2.61.52l-.43-.1-.21-.39a3.35 3.35 0 00-.18-2.66 1.59 1.59 0 00.05-2.78 1.59 1.59 0 00-2.17.58 1.57 1.57 0 00-.21.85 3.38 3.38 0 00-2.39 1.18h-.44l-.3-.32a3.35 3.35 0 00-.86-2.52 1.57 1.57 0 00.46-.75 1.59 1.59 0 10-3.08-.82 1.57 1.57 0 000 .88 3.35 3.35 0 00-2 1.75l-.42.12-.38-.23a3.35 3.35 0 00-1.53-2.21 1.57 1.57 0 00.24-.85 1.59 1.59 0 10-3.18 0 1.57 1.57 0 00.24.85 3.35 3.35 0 00-1.46 2.2l-.38.23-.42-.12a3.35 3.35 0 00-2-1.75 1.59 1.59 0 00-1.93-2 1.59 1.59 0 00-1.13 1.95 1.57 1.57 0 00.46.75 3.35 3.35 0 00-.86 2.52l-.31.32H95a3.41 3.41 0 00-2.39-1.18 1.57 1.57 0 00-.21-.85 1.59 1.59 0 00-2.76 1.59 1.57 1.57 0 00.64.61 3.35 3.35 0 00-.18 2.66c-.08.13-.15.26-.21.39l-.43.1a3.35 3.35 0 00-2.61-.52 1.57 1.57 0 00-.42-.77 1.63 1.63 0 00-2.25 0 1.59 1.59 0 00.77 2.68 3.35 3.35 0 00.52 2.61c0 .14-.07.29-.1.43l-.39.21a3.35 3.35 0 00-2.66.18 1.59 1.59 0 00-2.78-.05 1.59 1.59 0 00.58 2.18 1.58 1.58 0 00.85.21 3.35 3.35 0 001.18 2.39v.44l-.32.31a3.35 3.35 0 00-2.52.86 1.57 1.57 0 00-.75-.46 1.59 1.59 0 10-.82 3.08 1.57 1.57 0 00.88 0 3.35 3.35 0 001.75 2c0 .14.08.29.12.42s-.16.25-.23.38A3.35 3.35 0 0078 35.44a1.57 1.57 0 00-.85-.24 1.59 1.59 0 100 3.18 1.57 1.57 0 00.85-.24 3.35 3.35 0 002.21 1.48c.07.13.15.26.23.38s-.09.28-.12.42a3.35 3.35 0 00-1.75 2 1.57 1.57 0 00-.88 0 1.59 1.59 0 101.6 2.58 3.36 3.36 0 002.52.86c.1.11.21.2.32.3s0 .3 0 .45A3.35 3.35 0 0080.94 49a1.57 1.57 0 00-.85.21A1.59 1.59 0 0081.68 52a1.57 1.57 0 00.61-.63 3.35 3.35 0 002.66.18l.39.21c0 .14.06.29.1.43a3.35 3.35 0 00-.52 2.61 1.57 1.57 0 00-.77.42 1.59 1.59 0 002.25 2.25 1.57 1.57 0 00.42-.77 3.35 3.35 0 002.61-.52l.43.1.21.39a3.35 3.35 0 00.18 2.66 1.59 1.59 0 00.74 3 1.59 1.59 0 001.38-.8 1.57 1.57 0 00.21-.85 3.37 3.37 0 002.42-1.2h.44l.31.32a3.35 3.35 0 00.86 2.52 1.59 1.59 0 001.08 2.76 1.59 1.59 0 001.54-1.18 1.57 1.57 0 000-.88 3.35 3.35 0 002-1.75l.42-.12.38.23a3.35 3.35 0 001.48 2.21 1.57 1.57 0 00-.24.85 1.59 1.59 0 103.18 0 1.57 1.57 0 00-.24-.85 3.35 3.35 0 001.48-2.21l.38-.23.42.12a3.35 3.35 0 002 1.75 1.59 1.59 0 00.72 1.85 1.58 1.58 0 00.79.21 1.6 1.6 0 00.41-.06 1.59 1.59 0 00.67-2.7 3.35 3.35 0 00.86-2.52l.31-.32h.44a3.38 3.38 0 002.31 1.18 1.57 1.57 0 00.21.85 1.59 1.59 0 102.79-1.59 1.57 1.57 0 00-.63-.61 3.35 3.35 0 00.18-2.66c.08-.13.15-.26.21-.39l.43-.1a3.35 3.35 0 002.61.52 1.57 1.57 0 00.42.77 1.59 1.59 0 002.25-2.25 1.57 1.57 0 00-.77-.42 3.35 3.35 0 00-.52-2.61c0-.14.07-.29.1-.43l.39-.21a3.35 3.35 0 002.66-.18 1.57 1.57 0 00.67.65 1.59 1.59 0 101.59-2.76 1.57 1.57 0 00-.85-.21 3.35 3.35 0 00-1.18-2.39v-.45c0-.15.22-.19.32-.3a3.36 3.36 0 002.52-.86 1.59 1.59 0 10.7-2.6 3.35 3.35 0 00-1.75-2c0-.14-.08-.28-.12-.42s.16-.25.23-.38a3.35 3.35 0 002.21-1.48 1.57 1.57 0 00.85.24 1.59 1.59 0 100-3.18zm-8.9 16a5 5 0 01-2.2.36 22.22 22.22 0 002-2.57 5 5 0 01.2 2.17zm-4.37 4.37a5 5 0 01-2.21-.23 22.22 22.22 0 002.57-2 5 5 0 01-.36 2.19zm-5.33 3.08a5 5 0 01-2.08-.8 22 22 0 003-1.24 5 5 0 01-.92 2zm-5.95 1.59a5 5 0 01-1.81-1.31 22.16 22.16 0 003.2-.42 5 5 0 01-1.38 1.69zm-6.18 0a5 5 0 01-1.4-1.72 22.16 22.16 0 003.2.42 5 5 0 01-1.8 1.26zm-5.94-1.63a5 5 0 01-.91-2 22 22 0 003 1.24 5 5 0 01-2.09.76zm-5.33-3.08a5 5 0 01-.36-2.2 22.23 22.23 0 002.57 2 5 5 0 01-2.21.2zm-4.37-4.37a5 5 0 01.23-2.21 22.22 22.22 0 002 2.57 5 5 0 01-2.23-.36zm0-28.73a5 5 0 012.2-.36 22.23 22.23 0 00-2 2.57 5 5 0 01-.2-2.21zM90.45 18a5 5 0 012.21.23 22.22 22.22 0 00-2.57 2 5 5 0 01.36-2.23zm5.33-3a5 5 0 012.08.8 22 22 0 00-3 1.24 5 5 0 01.92-2.04zm5.95-1.59a5 5 0 011.81 1.31 22.16 22.16 0 00-3.2.42 5 5 0 011.38-1.76zm6.18 0a5 5 0 011.4 1.72 22.16 22.16 0 00-3.2-.42 5 5 0 011.8-1.33zm5.94 1.59a5 5 0 01.91 2 22 22 0 00-3-1.24 5 5 0 012.09-.76zm5.33 3a5 5 0 01.35 2.2 22.22 22.22 0 00-2.56-2 4.77 4.77 0 012.21-.23zm4.37 4.36a5 5 0 01-.23 2.22 22.23 22.23 0 00-2-2.57h.33a5 5 0 011.9.4zm1 4.43a5 5 0 012 .91 5 5 0 01-.8 2.08 22 22 0 00-1.16-2.94zm-40.8 3a5 5 0 01-.8-2.08 5 5 0 012-.91 22 22 0 00-1.16 3.03zm-1.04 5.71a5 5 0 01-1.31-1.81 5 5 0 011.72-1.4 22.17 22.17 0 00-.41 3.21zm.42 5.77a5 5 0 01-1.72-1.4 5 5 0 011.31-1.81 22.16 22.16 0 00.41 3.21zM85 46.73a5 5 0 01-2-.91 5 5 0 01.8-2.08 22 22 0 001.2 2.99zm40.8-3a5 5 0 01.8 2.08 5 5 0 01-2 .91 22 22 0 001.24-2.98zm1.08-5.67a5 5 0 011.31 1.81 5 5 0 01-1.72 1.4 22.16 22.16 0 00.45-3.2zm-.42-5.77a5 5 0 011.72 1.4 5 5 0 01-1.31 1.81 22.16 22.16 0 00-.37-3.2zm1.21-3.76a2.45 2.45 0 012.31 1 .42.42 0 00.76-.09.78.78 0 01.53-.51.76.76 0 01.39 1.47.78.78 0 01-.71-.17.42.42 0 00-.71.3c0 1.33-1.5 2-1.52 2a.41.41 0 00-.25.29 5.79 5.79 0 00-2.25-1.47c0-.16-.09-.32-.13-.48a5.79 5.79 0 001.22-2.41.42.42 0 00.4.07zm-2.92-5.65a2.45 2.45 0 012.48.33.42.42 0 00.71-.29.78.78 0 01.38-.62.76.76 0 11.76 1.32.78.78 0 01-.73 0 .42.42 0 00-.61.47 2.45 2.45 0 01-1 2.31.41.41 0 00-.16.34 5.79 5.79 0 00-2.57-.84l-.25-.43a5.79 5.79 0 00.55-2.64.42.42 0 00.49.06zm-4.28-4.7a2.45 2.45 0 012.48-.32.42.42 0 00.61-.47.78.78 0 01.21-.7.76.76 0 011.08 1.08.78.78 0 01-.7.21.42.42 0 00-.47.61 2.45 2.45 0 01-.32 2.48.42.42 0 00-.07.38 5.79 5.79 0 00-2.7-.15l-.35-.35a5.79 5.79 0 00-.15-2.7.42.42 0 00.43-.06zm-5.35-3.43a2.43 2.43 0 012.31-1 .42.42 0 00.47-.61.78.78 0 010-.73.76.76 0 111.32.76.78.78 0 01-.62.38.42.42 0 00-.29.71 2.45 2.45 0 01.33 2.48.42.42 0 000 .38 5.79 5.79 0 00-2.64.55l-.43-.25a5.79 5.79 0 00-.84-2.57.41.41 0 00.44-.09zm-6.05-1.93s.63-1.52 2-1.52a.42.42 0 00.29-.71.78.78 0 01-.17-.71.76.76 0 111.47.39.78.78 0 01-.5.53.42.42 0 00-.1.76 2.45 2.45 0 011 2.31.42.42 0 00.13.36 5.77 5.77 0 00-2.41 1.22l-.48-.13a5.79 5.79 0 00-1.47-2.25.41.41 0 00.29-.24zm-6.35-.3s.22-1.65 1.52-2a.42.42 0 00.1-.76.78.78 0 01-.35-.64.76.76 0 111.52 0 .78.78 0 01-.35.64.42.42 0 00.1.76c1.29.33 1.52 2 1.52 2a.41.41 0 00.22.31 5.79 5.79 0 00-2 1.8h-.49a5.79 5.79 0 00-2-1.8.42.42 0 00.26-.3zm-6.21 1.36a2.45 2.45 0 011-2.31.42.42 0 00-.1-.76.78.78 0 01-.5-.53.76.76 0 01.54-.93h.2a.76.76 0 01.73.56.78.78 0 01-.17.71.42.42 0 00-.09.46.41.41 0 00.39.25c1.34 0 2 1.5 2 1.52a.41.41 0 00.29.25 5.79 5.79 0 00-1.47 2.25l-.48.13a5.82 5.82 0 00-2.41-1.22.42.42 0 00.13-.37zm-5.59 2.92a2.45 2.45 0 01.33-2.48.41.41 0 00.09-.45.42.42 0 00-.38-.26.78.78 0 01-.63-.38.76.76 0 011.32-.76.78.78 0 010 .73.42.42 0 00.47.61 2.45 2.45 0 012.31 1 .41.41 0 00.34.16 5.79 5.79 0 00-.77 2.52l-.43.25a5.78 5.78 0 00-2.64-.55.42.42 0 00-.01-.39zm-4.7 4.28a2.45 2.45 0 01-.32-2.48.42.42 0 00-.36-.63h-.1a.78.78 0 01-.7-.21.76.76 0 010-1.08.76.76 0 011.28.7.42.42 0 00.61.47 2.45 2.45 0 012.48.32.42.42 0 00.38.07 5.79 5.79 0 00-.15 2.7l-.34.36a5.79 5.79 0 00-2.7.15.42.42 0 00-.08-.37zm-3.43 5.35a2.43 2.43 0 01-1-2.31.42.42 0 00-.4-.53.42.42 0 00-.2.05.78.78 0 01-.73 0 .76.76 0 11.76-1.32.78.78 0 01.38.62.42.42 0 00.71.29 2.45 2.45 0 012.48-.33.42.42 0 00.38 0 5.79 5.79 0 00.55 2.64l-.25.43a5.79 5.79 0 00-2.57.84.41.41 0 00-.11-.39zm-1.93 6.05s-1.53-.65-1.52-2a.42.42 0 00-.71-.3.78.78 0 01-.71.17.76.76 0 01.39-1.47.78.78 0 01.53.5.42.42 0 00.76.1 2.45 2.45 0 012.31-1 .41.41 0 00.36-.13 5.79 5.79 0 001.22 2.41c0 .16-.09.32-.13.48a5.79 5.79 0 00-2.25 1.47.42.42 0 00-.25-.23zm-.3 6.35s-1.65-.22-2-1.52a.42.42 0 00-.35-.31h-.06a.42.42 0 00-.36.21.78.78 0 01-.64.35.76.76 0 110-1.52.78.78 0 01.64.35.42.42 0 00.76-.1c.33-1.29 2-1.52 2-1.52a.42.42 0 00.31-.22 5.79 5.79 0 001.8 2v.49a5.79 5.79 0 00-1.8 2 .42.42 0 00-.3-.22zM82 45h-.05a2.45 2.45 0 01-2.31-1 .42.42 0 00-.76.1.78.78 0 01-.53.5.76.76 0 11-.39-1.47.78.78 0 01.71.17.42.42 0 00.71-.3c0-1.33 1.5-2 1.52-2a.41.41 0 00.25-.29 5.79 5.79 0 002.25 1.47c0 .16.09.32.13.48a5.79 5.79 0 00-1.22 2.41A.42.42 0 0082 45zm3 5.62a.42.42 0 00-.16 0 2.45 2.45 0 01-2.48-.33.42.42 0 00-.71.29.78.78 0 01-.38.62.76.76 0 01-.76-1.32.78.78 0 01.73 0 .42.42 0 00.61-.47 2.45 2.45 0 011-2.31.42.42 0 00.16-.35 5.78 5.78 0 002.56.84l.25.43a5.79 5.79 0 00-.55 2.64.41.41 0 00-.27-.01zm4.12 4.73a2.43 2.43 0 01-2.48.32.42.42 0 00-.61.47.78.78 0 01-.21.7.76.76 0 11-.53-1.3h.15a.42.42 0 00.46-.54 2.45 2.45 0 01.32-2.48.42.42 0 00.07-.38 5.7 5.7 0 002.7.15l.35.35a5.79 5.79 0 00.15 2.7.42.42 0 00-.38.04zm5.35 3.43a2.45 2.45 0 01-2.31 1 .42.42 0 00-.47.6.78.78 0 010 .73.76.76 0 11-1.32-.76A.78.78 0 0191 60a.42.42 0 00.29-.71 2.45 2.45 0 01-.33-2.48.42.42 0 000-.38 5.79 5.79 0 002.64-.55l.43.25a5.79 5.79 0 00.84 2.57.43.43 0 00-.41.11zm6.05 1.93s-.63 1.52-2 1.52a.42.42 0 00-.29.71.78.78 0 01.17.71.76.76 0 01-1.47-.39.78.78 0 01.5-.53.42.42 0 00.1-.76 2.45 2.45 0 01-1-2.31.42.42 0 00-.13-.36 5.79 5.79 0 002.41-1.22l.48.13a5.79 5.79 0 001.47 2.25.41.41 0 00-.25.28zm6.35.3s-.22 1.65-1.52 2a.42.42 0 00-.1.76.78.78 0 01.35.64.76.76 0 11-1.52 0 .78.78 0 01.35-.64.42.42 0 00-.1-.76c-1.29-.33-1.52-2-1.52-2a.42.42 0 00-.22-.31 5.79 5.79 0 002-1.8h.49a5.79 5.79 0 002 1.8.42.42 0 00-.22.3zm6.21-1.35a2.43 2.43 0 01-1 2.31.42.42 0 00.1.76.78.78 0 01.5.53.76.76 0 01-1.47.39.78.78 0 01.17-.71.42.42 0 00-.29-.71c-1.32 0-2-1.5-2-1.52a.41.41 0 00-.29-.25 5.79 5.79 0 001.47-2.25l.48-.13a5.77 5.77 0 002.41 1.22.42.42 0 00-.1.38zm5.65-2.92a2.45 2.45 0 01-.33 2.48.42.42 0 00.29.71.78.78 0 01.62.38.76.76 0 11-1.32.76.78.78 0 010-.73.42.42 0 00-.36-.62h-.11a2.45 2.45 0 01-2.31-1 .41.41 0 00-.35-.16 5.79 5.79 0 00.84-2.57l.43-.25a5.79 5.79 0 002.64.55.42.42 0 00-.06.47zm4.7-4.28a2.43 2.43 0 01.32 2.48.42.42 0 00.47.61.78.78 0 01.7.21.76.76 0 11-1.08 1.08.78.78 0 01-.21-.7.42.42 0 00-.61-.47 2.45 2.45 0 01-2.48-.32.41.41 0 00-.38-.07 5.79 5.79 0 00.15-2.7l.35-.35a5.7 5.7 0 002.7-.15.42.42 0 00.05.41zm3.43-5.35a2.45 2.45 0 011 2.31.42.42 0 00.61.47.77.77 0 01.73 0 .76.76 0 11-.76 1.32.78.78 0 01-.38-.62.42.42 0 00-.71-.29 2.45 2.45 0 01-2.48.33.42.42 0 00-.38 0 5.79 5.79 0 00-.55-2.64l.25-.43a5.78 5.78 0 002.56-.84.42.42 0 00.09.42zm1.93-6.05s1.53.65 1.52 2a.41.41 0 00.25.38.42.42 0 00.45-.08.79.79 0 01.71-.17.76.76 0 01-.39 1.47.78.78 0 01-.53-.5.42.42 0 00-.76-.1 2.45 2.45 0 01-2.31 1 .41.41 0 00-.36.13 5.79 5.79 0 00-1.22-2.41c0-.16.09-.32.13-.48a5.79 5.79 0 002.25-1.47.42.42 0 00.24.26zm3.68-3.54a.78.78 0 01-.64-.35.42.42 0 00-.76.1c-.33 1.29-2 1.52-2 1.52a.42.42 0 00-.31.22 5.79 5.79 0 00-1.8-2v-.5a5.79 5.79 0 001.8-2 .42.42 0 00.31.22s1.65.22 2 1.52a.42.42 0 00.76.1.78.78 0 01.64-.35.76.76 0 110 1.52z" transform="translate(-7.15 -7.55)"/><circle class="cls-2" cx="125.45" cy="32.51" r=".87"/><circle class="cls-2" cx="132.5" cy="32.76" r=".87" transform="rotate(-15 100.249 56.162)"/><circle class="cls-2" cx="130.52" cy="25.73" r=".87" transform="rotate(-30 112.837 35.315)"/><circle class="cls-2" cx="126.78" cy="19.46" r=".87" transform="rotate(-45 114.082 24.316)"/><circle class="cls-2" cx="121.55" cy="14.36" r=".87" transform="rotate(-60 111.427 16.782)"/><circle class="cls-2" cx="115.18" cy="10.79" r=".87" transform="rotate(-75 106.68 11.677)"/><circle cx="97.66" cy="29.23" r="20.89" fill="#fff"/><path class="cls-2" d="M104.92 26.6a10.17 10.17 0 1010.18 10.17 10.17 10.17 0 00-10.18-10.17zm-.44 18.75a8.83 8.83 0 01-1-.05 7.78 7.78 0 006-4 6.58 6.58 0 01-9.94-5.46 6.18 6.18 0 005.23 2.85c4.54 0 5.78-2.72 5.78-5.09a3.79 3.79 0 00-3.85-3.6 3.28 3.28 0 00-3.41 3.46 2.71 2.71 0 003 2.56 1.86 1.86 0 100-3.73 1.32 1.32 0 00-1.36 1.71 1.58 1.58 0 011.58-1.06 1.18 1.18 0 011.2 1.19 1.37 1.37 0 01-1.32 1.21 1.88 1.88 0 01-2-2.07 2.37 2.37 0 012.55-2.32 3 3 0 012.84 2.89c0 2-1.18 3.51-4.39 3.51a4.08 4.08 0 01-4.08-4.08 4.39 4.39 0 014.69-4.5c3.28 0 7.07 2.51 7.07 8a8.61 8.61 0 01-8.59 8.59z" transform="translate(-7.15 -7.55)"/><path class="cls-2" d="M93.79 43.13a8.31 8.31 0 00-4.85 1.12c3.23-.22 4.64 1.15 6.32 2.4a5 5 0 00-2.45 2.94c3.82-1.72 4.89-.52 7.5-.73s3.36-1.31 3.36-1.31a11.5 11.5 0 01-2.52-.51c-4.15-1.35-4.5-3.71-7.36-3.91z" transform="translate(-7.15 -7.55)"/></svg>